<?xml version="1.0" encoding="utf-8"?>
<svg xmlns="http://www.w3.org/2000/svg" viewBox="0 0 32 32" width="96" height="96">
  <path d="M10.53125 3.5C10.363281 3.542969 10.230469 3.671875 10.179688 3.835938C10.128906 4.003906 10.167969 4.183594 10.28125 4.3125L11.75 6.4375C10.082031 7.71875 9 9.742188 9 12L9 22C9 22.703125 9.441406 23.203125 10 23.5625L10 26.5C10 27.867188 11.132813 29 12.5 29C13.867188 29 15 27.867188 15 26.5L15 24L17 24L17 26.5C17 27.867188 18.132813 29 19.5 29C20.867188 29 22 27.867188 22 26.5L22 23.5625C22.558594 23.203125 23 22.703125 23 22L23 12C23 9.742188 21.917969 7.71875 20.25 6.4375L21.71875 4.3125C21.839844 4.160156 21.863281 3.949219 21.777344 3.777344C21.6875 3.601563 21.507813 3.492188 21.3125 3.5C21.28125 3.496094 21.25 3.496094 21.21875 3.5C21.085938 3.535156 20.972656 3.625 20.90625 3.75L19.40625 5.875C18.398438 5.3125 17.230469 5 16 5C14.769531 5 13.601563 5.3125 12.59375 5.875L11.09375 3.75C11.007813 3.601563 10.855469 3.507813 10.6875 3.5C10.65625 3.496094 10.625 3.496094 10.59375 3.5C10.574219 3.5 10.550781 3.5 10.53125 3.5 Z M 16 7C18.425781 7 20.441406 8.714844 20.90625 11L11.09375 11C11.558594 8.714844 13.574219 7 16 7 Z M 14 8C13.449219 8 13 8.449219 13 9C13 9.550781 13.449219 10 14 10C14.550781 10 15 9.550781 15 9C15 8.449219 14.550781 8 14 8 Z M 18 8C17.449219 8 17 8.449219 17 9C17 9.550781 17.449219 10 18 10C18.550781 10 19 9.550781 19 9C19 8.449219 18.550781 8 18 8 Z M 6 11L6 21L8 21L8 11 Z M 24 11L24 21L26 21L26 11 Z M 11 13L21 13L21 22L20 22L20 26.5C20 26.785156 19.785156 27 19.5 27C19.214844 27 19 26.785156 19 26.5L19 22L13 22L13 26.5C13 26.785156 12.785156 27 12.5 27C12.214844 27 12 26.785156 12 26.5L12 22L11 22Z" fill="#F7FFFE" />
</svg>