<?xml version="1.0" standalone="no"?>
<!DOCTYPE svg PUBLIC "-//W3C//DTD SVG 20010904//EN"
 "http://www.w3.org/TR/2001/REC-SVG-20010904/DTD/svg10.dtd">
<svg version="1.0" xmlns="http://www.w3.org/2000/svg"
 width="54.000000pt" height="54.000000pt" viewBox="0 0 54.000000 54.000000"
 preserveAspectRatio="xMidYMid meet" enable-background="new 0 0 500 500"  >

<g transform="translate(0.000000,54.000000) scale(0.100000,-0.100000)"
fill="#129A7F" stroke="none">
<path d="M125 530 c-4 -6 3 -22 15 -35 l22 -24 -25 -33 c-27 -35 -52 -112 -42
-128 4 -6 78 -10 182 -10 l176 0 -7 43 c-4 23 -20 62 -37 86 l-30 43 21 23
c35 38 13 52 -24 16 -23 -22 -35 -28 -46 -21 -8 5 -35 10 -60 10 -25 0 -52 -5
-60 -10 -11 -7 -23 -1 -46 21 -22 21 -34 27 -39 19z m93 -153 c4 -20 -25 -34
-40 -19 -15 15 -1 44 19 40 10 -2 19 -11 21 -21z m150 0 c4 -20 -25 -34 -40
-19 -15 15 -1 44 19 40 10 -2 19 -11 21 -21z"/>
<path d="M97 274 c-11 -11 -8 -94 4 -139 16 -57 46 -95 93 -116 82 -37 174
-12 222 61 24 37 28 52 29 119 l0 76 -171 3 c-93 1 -173 -1 -177 -4z"/>
</g>
</svg>