<?xml version="1.0" encoding="utf-8"?>
<svg xmlns="http://www.w3.org/2000/svg" viewBox="0 0 32 32" width="96" height="96">
  <path d="M16 3C8.832031 3 3 8.832031 3 16C3 23.167969 8.832031 29 16 29C23.167969 29 29 23.167969 29 16C29 8.832031 23.167969 3 16 3 Z M 16 5C22.085938 5 27 9.914063 27 16C27 22.085938 22.085938 27 16 27C9.914063 27 5 22.085938 5 16C5 9.914063 9.914063 5 16 5 Z M 15.90625 10C12.582031 10 9.90625 12.675781 9.90625 16C9.90625 19.324219 12.582031 22 15.90625 22C18.304688 22 20.355469 20.5625 21.3125 18.53125L19.5 17.6875C18.855469 19.058594 17.507813 20 15.90625 20C13.628906 20 11.90625 18.277344 11.90625 16C11.90625 13.722656 13.628906 12 15.90625 12C17.507813 12 18.855469 12.941406 19.5 14.3125L21.3125 13.46875C20.355469 11.4375 18.304688 10 15.90625 10Z" fill="#F7FFFE" />
</svg>