<?xml version="1.0" encoding="utf-8"?>
<svg xmlns="http://www.w3.org/2000/svg" viewBox="0 0 32 32" width="96" height="96">
  <path d="M11.46875 5C7.917969 5 5 7.914063 5 11.46875L5 20.53125C5 24.082031 7.914063 27 11.46875 27L20.53125 27C24.082031 27 27 24.085938 27 20.53125L27 11.46875C27 7.917969 24.085938 5 20.53125 5 Z M 11.46875 7L20.53125 7C23.003906 7 25 8.996094 25 11.46875L25 20.53125C25 23.003906 23.003906 25 20.53125 25L11.46875 25C8.996094 25 7 23.003906 7 20.53125L7 11.46875C7 8.996094 8.996094 7 11.46875 7 Z M 21.90625 9.1875C21.402344 9.1875 21 9.589844 21 10.09375C21 10.597656 21.402344 11 21.90625 11C22.410156 11 22.8125 10.597656 22.8125 10.09375C22.8125 9.589844 22.410156 9.1875 21.90625 9.1875 Z M 16 10C12.699219 10 10 12.699219 10 16C10 19.300781 12.699219 22 16 22C19.300781 22 22 19.300781 22 16C22 12.699219 19.300781 10 16 10 Z M 16 12C18.222656 12 20 13.777344 20 16C20 18.222656 18.222656 20 16 20C13.777344 20 12 18.222656 12 16C12 13.777344 13.777344 12 16 12Z" fill="#F7FFFE" />
</svg>