<?xml version="1.0" encoding="utf-8"?>
<svg xmlns="http://www.w3.org/2000/svg" viewBox="0 0 32 32" width="96" height="96">
  <path d="M8.65625 3C8.132813 3 7.617188 3.1875 7.1875 3.53125L7.125 3.5625L7.09375 3.59375L3.96875 6.8125L4 6.84375C3.035156 7.734375 2.738281 9.066406 3.15625 10.21875C3.160156 10.226563 3.152344 10.242188 3.15625 10.25C4.003906 12.675781 6.171875 17.359375 10.40625 21.59375C14.65625 25.84375 19.402344 27.925781 21.75 28.84375L21.78125 28.84375C22.996094 29.25 24.3125 28.960938 25.25 28.15625L28.40625 25C29.234375 24.171875 29.234375 22.734375 28.40625 21.90625L24.34375 17.84375L24.3125 17.78125C23.484375 16.953125 22.015625 16.953125 21.1875 17.78125L19.1875 19.78125C18.464844 19.433594 16.742188 18.542969 15.09375 16.96875C13.457031 15.40625 12.621094 13.609375 12.3125 12.90625L14.3125 10.90625C15.152344 10.066406 15.167969 8.667969 14.28125 7.84375L14.3125 7.8125L14.21875 7.71875L10.21875 3.59375L10.1875 3.5625L10.125 3.53125C9.695313 3.1875 9.179688 3 8.65625 3 Z M 8.65625 5C8.730469 5 8.804688 5.035156 8.875 5.09375L12.875 9.1875L12.96875 9.28125C12.960938 9.273438 13.027344 9.378906 12.90625 9.5L10.40625 12L9.9375 12.4375L10.15625 13.0625C10.15625 13.0625 11.304688 16.136719 13.71875 18.4375L13.9375 18.625C16.261719 20.746094 19 21.90625 19 21.90625L19.625 22.1875L22.59375 19.21875C22.765625 19.046875 22.734375 19.046875 22.90625 19.21875L27 23.3125C27.171875 23.484375 27.171875 23.421875 27 23.59375L23.9375 26.65625C23.476563 27.050781 22.988281 27.132813 22.40625 26.9375C20.140625 26.046875 15.738281 24.113281 11.8125 20.1875C7.855469 16.230469 5.789063 11.742188 5.03125 9.5625C4.878906 9.15625 4.988281 8.554688 5.34375 8.25L5.40625 8.1875L8.4375 5.09375C8.507813 5.035156 8.582031 5 8.65625 5Z" fill="#F7FFFE" />
</svg>